<svg xmlns="http://www.w3.org/2000/svg" width="38" height="24" viewBox="0 0 38 24"><g><g><g><g><g><path fill="#fff" d="M35.319 10.218a3.143 3.143 0 0 1 2.658 3.106v6.363c0 .33-.266.597-.594.597h-1.944v.04a3.777 3.777 0 0 1-3.765 3.778 3.776 3.776 0 0 1-3.766-3.779l.001-.04H14.508l.001.04a3.777 3.777 0 0 1-3.766 3.779 3.777 3.777 0 0 1-3.766-3.779l.001-.04H3.766a1.232 1.232 0 0 1-1.229-1.232v-1.313H.595a.596.596 0 0 1 0-1.193h5.708a.596.596 0 0 1 0 1.193H3.726v1.313c0 .022.018.04.04.04h3.418a3.773 3.773 0 0 1 3.559-2.546 3.773 3.773 0 0 1 3.559 2.545h12.337v-4.494a.596.596 0 1 1 1.19 0v4.495h.286a3.773 3.773 0 0 1 3.559-2.546 3.773 3.773 0 0 1 3.559 2.546h1.555v-2.625h-.674a1.868 1.868 0 0 1-1.863-1.87v-1.272c0-.33.266-.597.594-.597h1.85a1.946 1.946 0 0 0-1.849-1.352h-.001-7.016v.676a.596.596 0 1 1-1.19 0V1.233a.04.04 0 0 0-.04-.04H3.767a.04.04 0 0 0-.04.04V12.05a.596.596 0 1 1-1.189 0V1.233C2.537.553 3.088 0 3.766 0H26.6c.678 0 1.229.553 1.229 1.233v1.313h4.48a2.504 2.504 0 0 1 2.497 2.505v.636a.596.596 0 0 1-.47.584zm-7.49-5.127h5.788v-.04c0-.724-.587-1.312-1.309-1.312h-4.48zm6.255 5.09l-.971-3.897h-5.284v3.898zM13.32 20.325a2.584 2.584 0 0 0-2.577-2.586 2.584 2.584 0 0 0-2.577 2.586 2.584 2.584 0 0 0 2.577 2.585c1.42 0 2.577-1.16 2.577-2.585zm20.93 0a2.584 2.584 0 0 0-2.576-2.586 2.584 2.584 0 0 0-2.577 2.586 2.584 2.584 0 0 0 2.577 2.585c1.42 0 2.577-1.16 2.577-2.585zm2.538-5.052V13.92H35.44v.676c0 .373.302.677.674.677z"/></g></g></g><g><g><g><path fill="#fff" d="M10.739 19.09a1.232 1.232 0 0 0 0 2.466 1.232 1.232 0 0 0 0-2.466z"/></g></g></g><g><g><g><path fill="#fff" d="M31.679 19.09a1.232 1.232 0 0 0 0 2.466 1.232 1.232 0 0 0 0-2.466z"/></g></g></g><g><g><g><path fill="#fff" d="M24.694 16.55h-8.88a.596.596 0 0 0 0 1.193h8.88a.596.596 0 0 0 0-1.193z"/></g></g></g><g><g><g><path fill="#fff" d="M9.476 14H1.865a.596.596 0 0 0 0 1.193h7.611a.596.596 0 0 0 0-1.193z"/></g></g></g><g><g><g><path fill="#fff" d="M20.675 5.905a.593.593 0 0 0-.841 0l-5.288 5.305-2.75-2.76a.593.593 0 0 0-.842 0 .598.598 0 0 0 0 .844l3.172 3.182a.591.591 0 0 0 .84 0l5.709-5.728a.598.598 0 0 0 0-.843z"/></g></g></g></g></g></svg>