<svg xmlns="http://www.w3.org/2000/svg" width="33" height="41" viewBox="0 0 33 41"><g><g><g><path fill="#fff" d="M31.98 16.595c.63.697.951 1.597.904 2.534a3.492 3.492 0 0 1-1.153 2.431l-3.937 3.543a.6.6 0 0 1-.85-.045.602.602 0 0 1 .045-.85l1.191-1.072-2.619-2.897-2.88 4.165 1.835 2.03.565-.509a.602.602 0 1 1 .805.895L12.18 39.155a.632.632 0 0 1-.054.043A7.29 7.29 0 0 1 7.32 41C3.284 41 0 37.716 0 33.68V3.514A3.52 3.52 0 0 1 3.515 0h7.612c.978 0 1.864.402 2.502 1.05a3.488 3.488 0 0 1 2.629-.012l7.07 2.818a3.492 3.492 0 0 1 1.928 1.878c.21.488.304 1.006.284 1.523l3.197 2.21a3.493 3.493 0 0 1 1.459 2.261c.153.84 0 1.689-.431 2.416zm-3.928-6.137l-2.8-1.936-1.97 4.941 3.722 2.575 1.634-2.364a2.296 2.296 0 0 0 .373-1.73 2.296 2.296 0 0 0-.959-1.486zm-1.733 6.57l-3.495-2.417-2.024 5.077 2.489 1.72zm-3.715 5.371l-2.261-1.564-2.024 5.077 1.255.868zM22.569 12l-7.927-3.16v6.011l1.72.686a.602.602 0 0 1-.446 1.119l-1.274-.508v6.012l3.345 1.333 2.068-5.187-1.745-.696a.602.602 0 0 1 .446-1.118l1.745.696zm-9.131 1.43V7.846H1.204v5.584h2.848a.602.602 0 0 1 0 1.204H1.204v5.584h12.234v-5.584h-6.82a.602.602 0 1 1 0-1.204zM1.204 27.007h12.234v-5.585H1.204zm13.438 4.875l2.899-7.27-2.899-1.156zm1.299 2.269l3.12-2.809-.667-.738zm2.948-6.38l-1.028-.712-2.07 5.19zM15.812 2.155a2.293 2.293 0 0 0-1.479-.078c.198.439.309.925.309 1.437v4.028l8.373 3.339 1.158-2.904c.07-.175.117-.355.142-.536l.003-.014c.055-.41-.001-.829-.169-1.219a2.296 2.296 0 0 0-1.267-1.234zM3.515 1.204a2.314 2.314 0 0 0-2.31 2.311v3.127h12.233V3.515a2.314 2.314 0 0 0-2.311-2.31zM1.205 33.68a6.124 6.124 0 0 0 6.116 6.117 6.124 6.124 0 0 0 6.117-6.117v-5.468H1.204zm20.773-8.257l-2.88 4.165.858.95 3.665-3.298zm9.11-8.02l-2.02-2.233-2.803 4.053 2.81 3.108 1.85-1.664c.456-.413.725-.98.756-1.597a2.296 2.296 0 0 0-.594-1.666z"/></g><g><path fill="#fff" d="M10.074 33.697a2.89 2.89 0 0 1-2.887 2.887A2.89 2.89 0 0 1 4.3 33.697a2.89 2.89 0 0 1 2.887-2.887 2.89 2.89 0 0 1 2.887 2.887zm-1.204 0c0-.928-.755-1.683-1.683-1.683s-1.683.755-1.683 1.683.755 1.683 1.683 1.683 1.683-.755 1.683-1.683z"/></g></g></g></svg>