<svg xmlns="http://www.w3.org/2000/svg" width="22" height="20" viewBox="0 0 22 20"><g><g><path fill="#b4b5e8" d="M11 19c-.285 0-.56-.104-.773-.294a232.026 232.026 0 0 0-2.274-1.979l-.004-.003c-2.015-1.737-3.755-3.237-4.965-4.714C1.63 10.358 1 8.79 1 7.08c0-1.662.564-3.196 1.587-4.318a5.35 5.35 0 0 1 4-1.762C7.742 1 8.8 1.37 9.73 2.097c.47.368.895.818 1.27 1.342.375-.524.8-.974 1.27-1.342C13.202 1.37 14.26 1 15.414 1a5.35 5.35 0 0 1 4 1.762C20.438 3.884 21 5.418 21 7.08c0 1.711-.63 3.278-1.984 4.93-1.21 1.477-2.95 2.977-4.964 4.714-.689.593-1.47 1.266-2.279 1.982-.214.19-.488.294-.773.294zM6.587 2.185c-1.213 0-2.328.49-3.14 1.38-.822.903-1.276 2.151-1.276 3.515 0 1.44.53 2.726 1.715 4.173 1.145 1.399 2.85 2.868 4.823 4.57l.004.002c.69.595 1.471 1.27 2.285 1.99.82-.722 1.602-1.397 2.294-1.993 1.973-1.701 3.677-3.17 4.823-4.569C19.3 9.806 19.829 8.52 19.829 7.08c0-1.364-.454-2.612-1.277-3.515a4.197 4.197 0 0 0-3.139-1.38c-.889 0-1.705.286-2.426.85-.642.502-1.09 1.138-1.352 1.582a.732.732 0 0 1-.635.365.732.732 0 0 1-.635-.365c-.262-.444-.71-1.08-1.352-1.582a3.857 3.857 0 0 0-2.426-.85z"/><path fill="none" stroke="#b4b5e8" stroke-miterlimit="20" stroke-width=".4" d="M11 19c-.285 0-.56-.104-.773-.294a232.026 232.026 0 0 0-2.274-1.979l-.004-.003c-2.015-1.737-3.755-3.237-4.965-4.714C1.63 10.358 1 8.79 1 7.08c0-1.662.564-3.196 1.587-4.318a5.35 5.35 0 0 1 4-1.762C7.742 1 8.8 1.37 9.73 2.097c.47.368.895.818 1.27 1.342.375-.524.8-.974 1.27-1.342C13.202 1.37 14.26 1 15.414 1a5.35 5.35 0 0 1 4 1.762C20.438 3.884 21 5.418 21 7.08c0 1.711-.63 3.278-1.984 4.93-1.21 1.477-2.95 2.977-4.964 4.714-.689.593-1.47 1.266-2.279 1.982-.214.19-.488.294-.773.294zM6.587 2.185c-1.213 0-2.328.49-3.14 1.38-.822.903-1.276 2.151-1.276 3.515 0 1.44.53 2.726 1.715 4.173 1.145 1.399 2.85 2.868 4.823 4.57l.004.002c.69.595 1.471 1.27 2.285 1.99.82-.722 1.602-1.397 2.294-1.993 1.973-1.701 3.677-3.17 4.823-4.569C19.3 9.806 19.829 8.52 19.829 7.08c0-1.364-.454-2.612-1.277-3.515a4.197 4.197 0 0 0-3.139-1.38c-.889 0-1.705.286-2.426.85-.642.502-1.09 1.138-1.352 1.582a.732.732 0 0 1-.635.365.732.732 0 0 1-.635-.365c-.262-.444-.71-1.08-1.352-1.582a3.857 3.857 0 0 0-2.426-.85z"/></g></g></svg>