<?xml version="1.0" encoding="UTF-8" standalone="no"?>
<svg
   xmlns:dc="http://purl.org/dc/elements/1.1/"
   xmlns:cc="http://creativecommons.org/ns#"
   xmlns:rdf="http://www.w3.org/1999/02/22-rdf-syntax-ns#"
   xmlns:svg="http://www.w3.org/2000/svg"
   xmlns="http://www.w3.org/2000/svg"
   id="svg18"
   version="1.1"
   viewBox="0 0 21 21"
   height="21"
   width="21">
  <metadata
     id="metadata24">
    <rdf:RDF>
      <cc:Work
         rdf:about="">
        <dc:format>image/svg+xml</dc:format>
        <dc:type
           rdf:resource="http://purl.org/dc/dcmitype/StillImage" />
        <dc:title></dc:title>
      </cc:Work>
    </rdf:RDF>
  </metadata>
  <defs
     id="defs22" />
  <g
     id="g16">
    <g
       id="g14">
      <g
         id="g4" />
      <g
         id="g8" />
      <g
         id="g12">
        <path
           d="m 16.11,6.176 c 0.695,0 1.258,-0.565 1.258,-1.263 0,-0.697 -0.563,-1.263 -1.259,-1.263 -0.695,0 -1.259,0.566 -1.259,1.263 0,0.698 0.564,1.263 1.26,1.263 z m 4.824,0.014 c 0.086,1.94 0.09,6.74 0,8.68 -0.144,3.133 -1.612,4.877 -3.557,5.635 -1.43,0.555 -2.827,0.553 -6.873,0.553 -3.944,0 -6.705,0.266 -8.732,-1.767 C -0.217,17.295 0.011,14.628 0.011,10.53 0.011,6.525 -0.247,3.795 1.772,1.77 2.98,0.557 4.48,0.145 6.18,0.065 c 1.933,-0.086 6.719,-0.09 8.65,0 3.953,0.183 5.932,2.426 6.105,6.124 z m -1.826,4.34 c 0,-2.811 -0.012,-3.145 -0.062,-4.256 -0.22,-4.866 -3.878,-4.377 -8.54,-4.377 l -0.04,-0.026 c -2.806,0 -3.134,0.013 -4.249,0.053 -4.852,0.25 -4.356,3.742 -4.356,8.592 0,3.585 -0.267,5.949 1.208,7.42 1.28,1.289 3.034,1.224 7.41,1.224 4.248,0 6.085,0.118 7.409,-1.21 1.301,-1.311 1.219,-3.082 1.22,-7.42 z m -3.212,-0.004 c 0,2.985 -2.41,5.406 -5.388,5.406 -2.975,0 -5.388,-2.419 -5.388,-5.406 0,-2.985 2.41,-5.406 5.388,-5.406 2.975,0 5.389,2.419 5.389,5.406 z m -1.89,0 a 3.503,3.503 0 0 0 -3.498,-3.509 3.503,3.503 0 0 0 -3.497,3.509 3.502,3.502 0 0 0 3.497,3.509 3.501,3.501 0 0 0 3.498,-3.51 z"
           style="fill:#000001;fill-opacity:1"
           id="path10" />
      </g>
    </g>
  </g>
</svg>
