<svg xmlns="http://www.w3.org/2000/svg" width="37" height="37" viewBox="0 0 37 37"><g><g><g><path fill="#fff" d="M10.963 16.057a2.553 2.553 0 0 0-.445-1.583 3.929 3.929 0 0 1 0-4.444c.32-.464.475-1.02.445-1.583l-.001-.022c-.092-1.597.803-3.093 2.279-3.81l.014-.007c.521-.249.948-.66 1.217-1.17l.006-.011c.744-1.416 2.284-2.275 3.921-2.188l.025.001a2.858 2.858 0 0 0 1.688-.439 4.28 4.28 0 0 1 4.54 0 2.853 2.853 0 0 0 1.688.44l.025-.002c1.637-.086 3.177.772 3.921 2.188l.008.015c.27.51.695.918 1.214 1.166l.014.007c1.477.717 2.372 2.213 2.28 3.81v.024c-.031.562.125 1.118.444 1.582a3.929 3.929 0 0 1 0 4.443 2.555 2.555 0 0 0-.445 1.584l.001.022c.092 1.597-.803 3.093-2.279 3.81l-.012.006c-.522.25-.95.66-1.22 1.172l-.003.008c-.746 1.418-2.286 2.277-3.923 2.19h-.025a2.855 2.855 0 0 0-1.688.438 4.28 4.28 0 0 1-4.54 0 2.855 2.855 0 0 0-1.688-.439l-.025.002c-1.64.086-3.178-.773-3.921-2.189l-.006-.01c-.27-.511-.696-.922-1.216-1.17l-.015-.008c-1.476-.717-2.37-2.213-2.28-3.81zm.69-5.243a2.544 2.544 0 0 0-.002 2.877c.492.716.734 1.576.687 2.443l-.002.025c-.06 1.04.532 2.018 1.506 2.492l.013.006a4.051 4.051 0 0 1 1.834 1.766l.007.013a2.79 2.79 0 0 0 2.63 1.454h.024a4.221 4.221 0 0 1 2.497.65c.939.586 2.131.586 3.07-.002a4.228 4.228 0 0 1 2.497-.649l.024.002c1.101.058 2.134-.512 2.629-1.453l.005-.01a4.06 4.06 0 0 1 1.839-1.772l.01-.005c.974-.474 1.566-1.452 1.506-2.492l-.001-.023a3.942 3.942 0 0 1 .685-2.444 2.544 2.544 0 0 0 .001-2.878 3.938 3.938 0 0 1-.686-2.443l.001-.025c.06-1.04-.532-2.018-1.506-2.491l-.011-.006a4.056 4.056 0 0 1-1.836-1.766l-.009-.018c-.493-.938-1.523-1.508-2.627-1.45l-.024.001a4.23 4.23 0 0 1-2.497-.649 2.895 2.895 0 0 0-3.07 0 4.22 4.22 0 0 1-2.497.649l-.024-.001c-1.1-.058-2.134.512-2.629 1.453l-.006.013a4.056 4.056 0 0 1-1.838 1.768l-.011.006a2.619 2.619 0 0 0-1.505 2.491l.001.024a3.938 3.938 0 0 1-.686 2.443z"/></g><g><path fill="#fff" d="M17.934 19.372a.689.689 0 0 0 .95-.22l8.16-13.072a.689.689 0 1 0-1.17-.73l-8.16 13.073a.689.689 0 0 0 .22.95z"/></g><g><path fill="#fff" d="M15.62 8.809c0-1.913 1.365-3.469 3.042-3.469 1.677 0 3.042 1.556 3.042 3.469 0 1.913-1.365 3.47-3.042 3.47-1.677 0-3.042-1.557-3.042-3.47zm1.378 0c0 1.153.746 2.091 1.664 2.091.918 0 1.665-.938 1.665-2.091 0-1.153-.747-2.091-1.665-2.091s-1.664.938-1.664 2.09z"/></g><g><path fill="#fff" d="M26.092 12.22c1.678 0 3.042 1.557 3.042 3.469s-1.365 3.469-3.042 3.469c-1.677 0-3.042-1.556-3.042-3.47 0-1.912 1.365-3.468 3.042-3.468zm0 1.378c-.918 0-1.664.938-1.664 2.09 0 1.154.746 2.092 1.664 2.092.918 0 1.665-.938 1.665-2.091 0-1.154-.747-2.091-1.665-2.091z"/></g><g><path fill="#fff" d="M36.685 28.043L24.398 35.99a.677.677 0 0 1-.085.046 9.192 9.192 0 0 1-5.747.635l-8.474-2.378a2.435 2.435 0 0 0-1.817.198l-1.42.76-.015.574a.69.69 0 0 1-.688.67h-.02l-5.462-.15a.689.689 0 0 1-.67-.708L.33 23.65c.01-.38.327-.68.708-.67l5.462.15c.38.011.68.328.67.708l-.032 1.149a8.94 8.94 0 0 1 8.282-.01l.507.264a5.266 5.266 0 0 0 2.264.584l4.981.137a4.396 4.396 0 0 1 3.747 2.312l5.397-2.55a3.48 3.48 0 0 1 4.594 1.401c.18.317.081.72-.225.918zM5.482 35.099l.292-10.61-4.086-.112-.291 10.61zm29.826-7.807a2.104 2.104 0 0 0-2.38-.333l-.016.007-5.534 2.616c.053.294.075.594.067.893a.69.69 0 0 1-.688.67h-.02l-8.189-.225a.689.689 0 0 1 .038-1.377l7.42.204a3.02 3.02 0 0 0-2.871-2.407l-4.982-.138a6.65 6.65 0 0 1-2.86-.738l-.507-.263a7.571 7.571 0 0 0-7.692.41l-.195 7.055.726-.388a3.808 3.808 0 0 1 2.84-.31l8.45 2.37a7.809 7.809 0 0 0 4.777-.532z"/></g></g></g></svg>