<svg xmlns="http://www.w3.org/2000/svg" width="40" height="40" viewBox="0 0 40 40"><g><g><g><path fill="#fff" d="M24.521 16.288l-6.01 5.676-2.884-2.967a.831.831 0 1 0-1.192 1.158l3.46 3.552a.847.847 0 0 0 1.175.024l6.61-6.235a.83.83 0 0 0 .034-1.175.85.85 0 0 0-1.192-.033z"/></g><g><path fill="#fff" d="M32.518 20.004c0 6.869-5.585 12.454-12.454 12.454-6.869 0-12.454-5.585-12.454-12.454 0-6.869 5.585-12.454 12.454-12.454 6.869 0 12.454 5.585 12.454 12.454zm-1.667 0c0-5.958-4.83-10.787-10.787-10.787-5.952 0-10.787 4.843-10.787 10.787 0 5.943 4.835 10.787 10.787 10.787 5.957 0 10.787-4.83 10.787-10.787z"/></g><g><path fill="#fff" d="M39.912 19.544a.833.833 0 0 1 0 .917l-2.726 4.126.275 4.943a.846.846 0 0 1-.458.792L32.6 32.548l-2.225 4.401a.832.832 0 0 1-.792.459l-4.944-.275-4.126 2.725a.812.812 0 0 1-.917 0l-4.126-2.725-4.943.275a.845.845 0 0 1-.792-.459L7.51 32.548l-4.402-2.226a.831.831 0 0 1-.458-.792l.275-4.943-2.718-4.135a.833.833 0 0 1 0-.916l2.726-4.127-.275-4.943a.845.845 0 0 1 .459-.792l4.401-2.226 2.226-4.401a.83.83 0 0 1 .792-.459l4.943.276L19.605.137a.833.833 0 0 1 .917 0l4.126 2.727 4.952-.267c.331-.016.64.163.792.458l2.226 4.402 4.401 2.225c.298.149.478.46.459.792l-.275 4.943zm-1.684.458l-2.576-3.901a.912.912 0 0 1-.133-.508l.258-4.677-4.16-2.1a.822.822 0 0 1-.366-.367l-2.101-4.16-4.676.258a.782.782 0 0 1-.51-.133l-3.9-2.576-3.901 2.576a.915.915 0 0 1-.509.133l-4.677-.258-2.1 4.16a.822.822 0 0 1-.367.366l-4.16 2.1.259 4.678a.78.78 0 0 1-.134.508L1.9 20.002l2.575 3.901a.91.91 0 0 1 .134.509l-.259 4.676 4.168 2.093c.16.08.288.208.367.366l2.1 4.16 4.678-.258h.041c.164 0 .323.05.459.141l3.9 2.576 3.902-2.576a.912.912 0 0 1 .509-.133l4.676.258 2.1-4.16a.823.823 0 0 1 .367-.366l4.16-2.1-.258-4.677a.783.783 0 0 1 .133-.509z"/></g></g></g></svg>